<svg width="36" height="36" viewBox="0 0 36 36" fill="none" xmlns="http://www.w3.org/2000/svg">
<path fill-rule="evenodd" clip-rule="evenodd" d="M18 36C27.9411 36 36 27.9411 36 18C36 8.05887 27.9411 0 18 0C8.05887 0 0 8.05887 0 18C0 27.9411 8.05887 36 18 36ZM7.91211 11.1367L7.77539 12.2012L9.12305 12.4746L11.1445 26.0977H14.1426L17.9414 16.9766L18.8203 26.0977H21.8477L28.2246 12.4648L29.7871 12.2012L29.8848 11.1367H24.084L23.9863 12.2109L26.2031 12.4746L22.541 21.0195L21.7012 23.0508L21.6328 21.0195L20.8125 12.4746L22.2773 12.2109L22.3652 11.1367H15.959L15.8613 12.2012L17.4238 12.4746L17.5508 13.8809L14.5723 21.0195L13.8008 23.0508L13.5762 21.0195L12.6582 12.4941L13.9961 12.2109L14.084 11.1367H7.91211Z" fill="#730641"/>
</svg>
